<?xml version="1.0" encoding="UTF-8" standalone="no"?>
<svg width="32px" height="40px" viewBox="0 0 32 40" version="1.1" xmlns="http://www.w3.org/2000/svg" xmlns:xlink="http://www.w3.org/1999/xlink">
    <!-- Generator: Sketch 47.1 (45422) - http://www.bohemiancoding.com/sketch -->
    <title>sign handicap</title>
    <desc>Created with Sketch.</desc>
    <defs></defs>
    <g id="GD-28.06.17" stroke="none" stroke-width="1" fill="none" fill-rule="evenodd">
        <g id="Nye-ikoner-navigasjonsside" transform="translate(-882.000000, -1272.000000)" fill-rule="nonzero" fill="#000000">
            <g id="sign-handicap" transform="translate(882.000000, 1272.000000)">
                <path d="M31.30875,34.7366667 C31.16355,34.3 30.6966,34.0666667 30.2643,34.21 C29.4756,34.475 28.28925,34.8283333 27.6111,34.9533333 C27.4131,34.38 27.15075,33.17 26.9478,32.24 C26.08485,28.2683333 25.476,25.8333333 23.925,25.8333333 C22.4466,25.8333333 13.59105,27.5783333 10.60455,28.175 L9.72015,21.3216667 L18.34965,19.1416667 C18.7935,19.03 19.0608,18.5766667 18.95025,18.1316667 C18.84135,17.6833333 18.3843,17.415 17.95035,17.525 L9.504,19.6566667 L8.33085,10.5616667 C10.6095,9.95333333 12.30075,7.87166667 12.30075,5.38 C12.30075,2.41333333 9.9132,0 6.97785,0 C4.0392,0 1.65,2.41333333 1.65,5.38 C1.65,8.24666667 3.88575,10.575 6.68745,10.7316667 L7.8969,20.0983333 C7.86555,20.1133333 7.8342,20.125 7.80615,20.1416667 C3.49305,20.9583333 0,25.345 0,30 C0,35.515 4.3659,40 9.735,40 C15.19155,40 19.8,35.42 19.8,30 L19.8,28.1166667 C21.7107,27.7783333 23.22705,27.535 23.8095,27.5033333 C24.35235,28.0733333 25.01235,31.1116667 25.33575,32.5966667 C25.97925,35.5583333 26.22015,36.6666667 27.225,36.6666667 C28.13745,36.6666667 30.35175,35.9366667 30.7857,35.7916667 C31.218,35.645 31.4523,35.1733333 31.30875,34.7366667 Z M3.3,5.38 C3.3,3.33166667 4.95,1.66666667 6.97785,1.66666667 C9.00405,1.66666667 10.6524,3.33166667 10.6524,5.38 C10.6524,7.42833333 9.0024,9.09333333 6.97785,9.09333333 C4.95,9.09333333 3.3,7.42666667 3.3,5.38 Z M18.15,30 C18.15,34.4383333 14.21805,38.3333333 9.735,38.3333333 C5.2767,38.3333333 1.65,34.595 1.65,30 C1.65,25.785 4.9731,22.3766667 8.11305,21.7766667 L9.0816,29.2733333 C9.11295,29.5033333 9.2334,29.71 9.41985,29.8433333 C9.603,29.9783333 9.8373,30.0316667 10.0617,29.9833333 C12.45255,29.5 15.5067,28.9033333 18.15,28.4166667 L18.15,30 Z" id="Shape"></path>
            </g>
        </g>
    </g>
</svg>