<?xml version="1.0" encoding="UTF-8" standalone="no"?>
<svg width="37px" height="39px" viewBox="0 0 37 39" version="1.1" xmlns="http://www.w3.org/2000/svg" xmlns:xlink="http://www.w3.org/1999/xlink">
    <!-- Generator: Sketch 47.1 (45422) - http://www.bohemiancoding.com/sketch -->
    <title>Group 7</title>
    <desc>Created with Sketch.</desc>
    <defs></defs>
    <g id="GD-28.06.17" stroke="none" stroke-width="1" fill="none" fill-rule="evenodd">
        <g id="Nye-ikoner-navigasjonsside" transform="translate(-873.000000, -896.000000)" fill-rule="nonzero" fill="#000000">
            <g id="Group-7" transform="translate(873.000000, 896.000000)">
                <g id="Group-6" transform="translate(3.083333, 7.692308)">
                    <g id="account-group-3">
                        <path d="M5.18659241,16.8213808 C6.97467014,16.8213808 8.42821266,15.3695662 8.42821266,13.5864999 C8.42821266,11.8034335 6.97467014,10.3516189 5.18659241,10.3516189 C3.39851467,10.3516189 1.94497215,11.8034335 1.94497215,13.5864999 C1.94497215,15.3695662 3.39851467,16.8213808 5.18659241,16.8213808 Z M5.18659241,11.6455713 C6.25892039,11.6455713 7.13156456,12.5164012 7.13156456,13.5864999 C7.13156456,14.6565985 6.25892039,15.5274284 5.18659241,15.5274284 C4.11426443,15.5274284 3.24162025,14.6565985 3.24162025,13.5864999 C3.24162025,12.5164012 4.11426443,11.6455713 5.18659241,11.6455713 Z" id="Shape"></path>
                        <path d="M9.72486076,18.1153331 L0.648324051,18.1153331 C0.290449175,18.1153331 0,18.4051785 0,18.7623093 C0,21.8535615 0.207463696,24.6989628 2.5932962,25.6370783 L2.5932962,30.4078806 C2.5932962,30.7650115 2.88374538,31.0548568 3.24162025,31.0548568 L7.13156456,31.0548568 C7.48943943,31.0548568 7.77988861,30.7650115 7.77988861,30.4078806 L7.77988861,25.6370783 C10.1657211,24.6989628 10.3731848,21.8522676 10.3731848,18.7623093 C10.3731848,18.4051785 10.0827356,18.1153331 9.72486076,18.1153331 Z M6.96948354,24.5411006 C6.68292431,24.6148559 6.48324051,24.8723524 6.48324051,25.1673735 L6.48324051,29.7609044 L3.8899443,29.7609044 L3.8899443,25.1673735 C3.8899443,24.8723524 3.6902605,24.6148559 3.40370127,24.5411006 C1.74788164,24.1166842 1.34592073,22.4047852 1.30183469,19.4092855 L9.07135012,19.4092855 C9.02726408,22.4047852 8.62530317,24.1166842 6.96948354,24.5411006 Z" id="Shape"></path>
                        <path d="M25.932962,16.8213808 C27.7210398,16.8213808 29.1745823,15.3695662 29.1745823,13.5864999 C29.1745823,11.8034335 27.7210398,10.3516189 25.932962,10.3516189 C24.1448843,10.3516189 22.6913418,11.8034335 22.6913418,13.5864999 C22.6913418,15.3695662 24.1448843,16.8213808 25.932962,16.8213808 Z M25.932962,11.6455713 C27.00529,11.6455713 27.8779342,12.5164012 27.8779342,13.5864999 C27.8779342,14.6565985 27.00529,15.5274284 25.932962,15.5274284 C24.860634,15.5274284 23.9879899,14.6565985 23.9879899,13.5864999 C23.9879899,12.5164012 24.860634,11.6455713 25.932962,11.6455713 Z" id="Shape"></path>
                        <path d="M30.4712304,18.1153331 L21.3946937,18.1153331 C21.0368188,18.1153331 20.7463696,18.4051785 20.7463696,18.7623093 C20.7463696,21.8535615 20.9538333,24.6989628 23.3396658,25.6370783 L23.3396658,30.4078806 C23.3396658,30.7650115 23.630115,31.0548568 23.9879899,31.0548568 L27.8779342,31.0548568 C28.2358091,31.0548568 28.5262582,30.7650115 28.5262582,30.4078806 L28.5262582,25.6370783 C30.9120907,24.6989628 31.1195544,21.8522676 31.1195544,18.7623093 C31.1195544,18.4051785 30.8291053,18.1153331 30.4712304,18.1153331 Z M27.7158532,24.5411006 C27.4292939,24.6148559 27.2296101,24.8723524 27.2296101,25.1673735 L27.2296101,29.7609044 L24.6363139,29.7609044 L24.6363139,25.1673735 C24.6363139,24.8723524 24.4366301,24.6148559 24.1500709,24.5411006 C22.4942513,24.1166842 22.0922904,22.4047852 22.0482043,19.4092855 L29.8177197,19.4092855 C29.7736337,22.4047852 29.3716728,24.1166842 27.7158532,24.5411006 Z" id="Shape"></path>
                        <path d="M15.5597772,6.46976184 C17.3478549,6.46976184 18.8013975,5.01794728 18.8013975,3.23488092 C18.8013975,1.45181456 17.3478549,0 15.5597772,0 C13.7716995,0 12.318157,1.45181456 12.318157,3.23488092 C12.318157,5.01794728 13.7716995,6.46976184 15.5597772,6.46976184 Z M15.5597772,1.29395237 C16.6321052,1.29395237 17.5047494,2.16478231 17.5047494,3.23488092 C17.5047494,4.30497953 16.6321052,5.17580947 15.5597772,5.17580947 C14.4874492,5.17580947 13.6148051,4.30497953 13.6148051,3.23488092 C13.6148051,2.16478231 14.4874492,1.29395237 15.5597772,1.29395237 Z" id="Shape"></path>
                        <path d="M20.0980456,7.7637142 L11.0215089,7.7637142 C10.663634,7.7637142 10.3731848,8.05355953 10.3731848,8.41069039 C10.3731848,11.5019426 10.5806485,14.3473438 12.966481,15.2854593 L12.966481,20.0562617 C12.966481,20.4133925 13.2569302,20.7032379 13.6148051,20.7032379 L17.5047494,20.7032379 C17.8626242,20.7032379 18.1530734,20.4133925 18.1530734,20.0562617 L18.1530734,15.2854593 C20.5389059,14.3473438 20.7463696,11.5006486 20.7463696,8.41069039 C20.7463696,8.05355953 20.4559204,7.7637142 20.0980456,7.7637142 Z M17.3426684,14.1894817 C17.0561091,14.2632369 16.8564253,14.5207335 16.8564253,14.8157546 L16.8564253,19.4092855 L14.2631291,19.4092855 L14.2631291,14.8157546 C14.2631291,14.5207335 14.0634453,14.2632369 13.7768861,14.1894817 C12.1210665,13.7650653 11.7191055,12.0531663 11.6750195,9.05766657 L19.4445349,9.05766657 C19.4004489,12.0531663 18.998488,13.7650653 17.3426684,14.1894817 Z" id="Shape"></path>
                    </g>
                </g>
                <g id="Group-4">
                    <path d="M26.2083333,6.92307692 C26.6338333,6.92307692 26.9791667,6.57846154 26.9791667,6.15384615 C26.9791667,5.12923077 27.3507083,4.90153846 28.0275,4.48461538 C28.8846667,3.95538462 30.0625,3.22923077 30.0625,0.769230769 C30.0625,0.344615385 29.7171667,0 29.2916667,0 C28.8661667,0 28.5208333,0.344615385 28.5208333,0.769230769 C28.5208333,2.37076923 27.9735417,2.70769231 27.2150417,3.17538462 C26.4657917,3.63846154 25.4375,4.27230769 25.4375,6.15384615 C25.4375,6.58 25.7828333,6.92307692 26.2083333,6.92307692 Z" id="Shape"></path>
                    <path d="M30.0625,6.92307692 C30.488,6.92307692 30.8333333,6.58 30.8333333,6.15384615 C30.8333333,5.12923077 31.204875,4.90153846 31.8816667,4.48461538 C32.7388333,3.95538462 33.9166667,3.22923077 33.9166667,0.769230769 C33.9166667,0.344615385 33.5713333,0 33.1458333,0 C32.7203333,0 32.375,0.344615385 32.375,0.769230769 C32.375,2.37076923 31.8277083,2.70769231 31.0692083,3.17538462 C30.3199583,3.63846154 29.2916667,4.27230769 29.2916667,6.15384615 C29.2916667,6.58 29.637,6.92307692 30.0625,6.92307692 Z" id="Shape"></path>
                    <path d="M36.7625833,19.4446154 L30.8333333,13.7846154 L30.8333333,8.46153846 C30.8333333,8.03692308 30.488,7.69230769 30.0625,7.69230769 L24.4492917,7.69230769 L19.031875,2.52153846 C18.7343333,2.23692308 18.264125,2.23692308 17.9665833,2.52153846 L0.237416667,19.4446154 C-0.069375,19.7384615 -0.0801666667,20.2246154 0.21275,20.5323077 C0.50875,20.8384615 0.995916667,20.8507692 1.30270833,20.5569231 L18.5,4.14153846 L35.69575,20.5553846 C35.8452917,20.6984615 36.038,20.7692308 36.2291667,20.7692308 C36.4326667,20.7692308 36.634625,20.6892308 36.7857083,20.5323077 C37.0801667,20.2246154 37.069375,19.7384615 36.7625833,19.4446154 Z M29.2916667,9.23076923 L29.2916667,12.3123077 L26.061875,9.23076923 L29.2916667,9.23076923 Z" id="Shape"></path>
                </g>
            </g>
        </g>
    </g>
</svg>