<?xml version="1.0" encoding="UTF-8" standalone="no"?>
<svg width="39px" height="42px" viewBox="0 0 39 42" version="1.1" xmlns="http://www.w3.org/2000/svg" xmlns:xlink="http://www.w3.org/1999/xlink">
    <!-- Generator: Sketch 47.1 (45422) - http://www.bohemiancoding.com/sketch -->
    <title>Page 1</title>
    <desc>Created with Sketch.</desc>
    <defs></defs>
    <g id="GD-28.06.17" stroke="none" stroke-width="1" fill="none" fill-rule="evenodd" stroke-linecap="round" stroke-linejoin="round">
        <g id="Nye-ikoner-navigasjonsside" transform="translate(-363.000000, -579.000000)" stroke-width="2" stroke="#3E3832">
            <g id="Page-1" transform="translate(364.000000, 580.000000)">
                <g id="Group-12">
                    <path d="M1.25503636,13.9130435 L15.9351273,13.9130435" id="Stroke-1"></path>
                    <path d="M6.90909091,24.3478261 C3.08145455,21.9686957 0.863636364,18.1843478 0.863636364,13.9130435 C0.863636364,6.70956522 7.91090909,0.869565217 16.6042727,0.869565217 L16.6042727,13.9130435 L32.3466364,13.9130435 C32.3466364,18.2156522 29.8127273,22.0469565 25.9090909,24.426087 L6.90909091,24.3478261" id="Stroke-3"></path>
                    <path d="M12.4823091,36.0869565 C12.4823091,38.2469565 10.7377636,40 8.59594545,40 C6.44721818,40 4.70958182,38.2469565 4.70958182,36.0869565 C4.70958182,33.9269565 6.44721818,32.173913 8.59594545,32.173913 C10.7377636,32.173913 12.4823091,33.9269565 12.4823091,36.0869565 Z" id="Stroke-5"></path>
                    <path d="M30.6186727,36.0869565 C30.6186727,38.2469565 28.8741273,40 26.7323091,40 C24.5835818,40 22.8459455,38.2469565 22.8459455,36.0869565 C22.8459455,33.9269565 24.5835818,32.173913 26.7323091,32.173913 C28.8741273,32.173913 30.6186727,33.9269565 30.6186727,36.0869565 Z" id="Stroke-7"></path>
                    <polyline id="Stroke-9" points="8.59594545 36.0869565 31.9538545 10.4347826 36.6865818 10.4347826"></polyline>
                    <path d="M26.7727273,36.5217391 L24.1818182,29.5652174" id="Stroke-11"></path>
                    <path d="M6.90909091,27.826087 L24.1818182,27.826087" id="Stroke-13"></path>
                </g>
            </g>
        </g>
    </g>
</svg>