<?xml version="1.0" encoding="UTF-8" standalone="no"?>
<svg width="35px" height="35px" viewBox="0 0 35 35" version="1.1" xmlns="http://www.w3.org/2000/svg" xmlns:xlink="http://www.w3.org/1999/xlink">
    <!-- Generator: Sketch 47.1 (45422) - http://www.bohemiancoding.com/sketch -->
    <title>Group</title>
    <desc>Created with Sketch.</desc>
    <defs></defs>
    <g id="GD-28.06.17" stroke="none" stroke-width="1" fill="none" fill-rule="evenodd" stroke-linejoin="round">
        <g id="Nye-ikoner-navigasjonsside" transform="translate(-362.000000, -2043.000000)" stroke="#000000">
            <g id="Group" transform="translate(362.000000, 2043.000000)">
                <path d="M34.2391304,17.5 C34.2391304,26.7445652 26.7430435,34.2391304 17.5,34.2391304 C8.25391304,34.2391304 0.760869565,26.7445652 0.760869565,17.5 C0.760869565,8.25543478 8.25391304,0.760869565 17.5,0.760869565 C26.7430435,0.760869565 34.2391304,8.25543478 34.2391304,17.5 L34.2391304,17.5 Z" id="Stroke-3055" stroke-linecap="round"></path>
                <path d="M12.9347826,28.1521739 L22.0652174,28.1521739" id="Stroke-3056" stroke-linecap="round"></path>
                <polyline id="Stroke-3057" stroke-linecap="round" points="14.4565217 14.4565217 17.5 14.4565217 17.5 27.3913043"></polyline>
                <path d="M16.7391304,7.60869565 C16.3176087,7.60869565 15.9782609,7.95108696 15.9782609,8.36956522 C15.9782609,8.79108696 16.3176087,9.13043478 16.7391304,9.13043478 C17.1576087,9.13043478 17.5,8.79108696 17.5,8.36956522 C17.5,7.95108696 17.1576087,7.60869565 16.7391304,7.60869565 L16.7391304,7.60869565 Z" id="Stroke-3058"></path>
            </g>
        </g>
    </g>
</svg>